<svg xmlns="http://www.w3.org/2000/svg" width="210" height="19" viewBox="0 0 210 19" fill="none">
    <path
        d="M0.75 3.97159V0.545454H15.5028V3.97159H10.2102V18H6.05114V3.97159H0.75ZM19.4723 18.2216C18.6371 18.2216 17.8956 18.0824 17.2479 17.804C16.6058 17.5199 16.0973 17.0937 15.7223 16.5256C15.353 15.9517 15.1683 15.233 15.1683 14.3693C15.1683 13.642 15.2962 13.0284 15.5518 12.5284C15.8075 12.0284 16.1598 11.6222 16.6087 11.3097C17.0575 10.9972 17.5746 10.7614 18.1598 10.6023C18.745 10.4375 19.37 10.3267 20.0348 10.2699C20.7791 10.2017 21.3786 10.1307 21.8331 10.0568C22.2876 9.97727 22.6172 9.86648 22.8217 9.72443C23.032 9.5767 23.1371 9.36932 23.1371 9.10227V9.05966C23.1371 8.62216 22.9865 8.28409 22.6854 8.04545C22.3842 7.80682 21.978 7.6875 21.4666 7.6875C20.9155 7.6875 20.4723 7.80682 20.1371 8.04545C19.8018 8.28409 19.5888 8.61364 19.4979 9.03409L15.6541 8.89773C15.7678 8.10227 16.0604 7.39205 16.532 6.76705C17.0092 6.13636 17.6626 5.64205 18.4922 5.28409C19.3274 4.92045 20.3303 4.73864 21.5007 4.73864C22.3359 4.73864 23.1058 4.83807 23.8104 5.03693C24.5149 5.23011 25.1286 5.5142 25.6513 5.8892C26.174 6.25852 26.5774 6.71307 26.8615 7.25284C27.1513 7.79261 27.2962 8.40909 27.2962 9.10227V18H23.3757V16.1761H23.2734C23.0405 16.6193 22.7422 16.9943 22.3786 17.3011C22.0206 17.608 21.5973 17.8381 21.1087 17.9915C20.6257 18.1449 20.0803 18.2216 19.4723 18.2216ZM20.7592 15.4943C21.2081 15.4943 21.6115 15.4034 21.9695 15.2216C22.3331 15.0398 22.6229 14.7898 22.8388 14.4716C23.0547 14.1477 23.1626 13.7727 23.1626 13.3466V12.1023C23.0433 12.1648 22.8984 12.2216 22.728 12.2727C22.5632 12.3239 22.3814 12.3722 22.1825 12.4176C21.9837 12.4631 21.7791 12.5028 21.5689 12.5369C21.3587 12.571 21.157 12.6023 20.9638 12.6307C20.5717 12.6932 20.2365 12.7898 19.9581 12.9205C19.6854 13.0511 19.4751 13.2216 19.3274 13.4318C19.1854 13.6364 19.1143 13.8807 19.1143 14.1648C19.1143 14.5966 19.2678 14.9261 19.5746 15.1534C19.8871 15.3807 20.282 15.4943 20.7592 15.4943ZM33.3899 4.90909L35.5462 9.22159L37.7791 4.90909H41.9808L38.3246 11.4545L42.1172 18H37.9496L35.5462 13.6534L33.2024 18H28.9751L32.7763 11.4545L29.1626 4.90909H33.3899ZM49.5341 18.2472C48.1648 18.2472 46.983 17.9773 45.9886 17.4375C45 16.892 44.2386 16.1165 43.7045 15.1108C43.1761 14.0994 42.9119 12.8977 42.9119 11.5057C42.9119 10.1534 43.179 8.97159 43.7131 7.96023C44.2472 6.94318 45 6.15341 45.9716 5.59091C46.9432 5.02273 48.0881 4.73864 49.4062 4.73864C50.3381 4.73864 51.1903 4.88352 51.9631 5.17329C52.7358 5.46307 53.4034 5.89205 53.9659 6.46023C54.5284 7.02841 54.9659 7.73011 55.2784 8.56534C55.5909 9.39489 55.7472 10.3466 55.7472 11.4205V12.4602H44.3693V10.0398H51.8693C51.8636 9.59659 51.7585 9.2017 51.554 8.85511C51.3494 8.50852 51.0682 8.23864 50.7102 8.04545C50.358 7.84659 49.9517 7.74716 49.4915 7.74716C49.0256 7.74716 48.608 7.85227 48.2386 8.0625C47.8693 8.26705 47.5767 8.5483 47.3608 8.90625C47.1449 9.25852 47.0313 9.65909 47.0199 10.108V12.571C47.0199 13.1051 47.125 13.5739 47.3352 13.9773C47.5455 14.375 47.8438 14.6847 48.2301 14.9062C48.6165 15.1278 49.0767 15.2386 49.6108 15.2386C49.9801 15.2386 50.3153 15.1875 50.6165 15.0852C50.9176 14.983 51.1761 14.8324 51.392 14.6335C51.608 14.4347 51.7699 14.1903 51.8778 13.9006L55.7045 14.0114C55.5455 14.8693 55.196 15.6165 54.6562 16.2528C54.1222 16.8835 53.4205 17.375 52.5511 17.7273C51.6818 18.0739 50.6761 18.2472 49.5341 18.2472ZM69.3047 8.90625L65.478 9.00852C65.4382 8.7358 65.3303 8.49432 65.1541 8.28409C64.978 8.06818 64.7479 7.90057 64.4638 7.78125C64.1854 7.65625 63.8615 7.59375 63.4922 7.59375C63.0092 7.59375 62.5973 7.69034 62.2564 7.88352C61.9212 8.0767 61.7564 8.33807 61.7621 8.66761C61.7564 8.9233 61.8587 9.14489 62.0689 9.33239C62.2848 9.51989 62.6683 9.67045 63.2195 9.78409L65.7422 10.2614C67.049 10.5114 68.0206 10.9261 68.657 11.5057C69.299 12.0852 69.6229 12.8523 69.6286 13.8068C69.6229 14.7045 69.3558 15.4858 68.8274 16.1506C68.3047 16.8153 67.5888 17.3324 66.6797 17.7017C65.7706 18.0653 64.7308 18.2472 63.5604 18.2472C61.6911 18.2472 60.2166 17.8636 59.1371 17.0966C58.0632 16.3239 57.4496 15.2898 57.2962 13.9943L61.4126 13.892C61.5036 14.3693 61.7393 14.733 62.12 14.983C62.5007 15.233 62.9865 15.358 63.5774 15.358C64.1115 15.358 64.5462 15.2585 64.8814 15.0597C65.2166 14.8608 65.3871 14.5966 65.3928 14.267C65.3871 13.9716 65.2564 13.7358 65.0007 13.5597C64.745 13.3778 64.3445 13.2358 63.799 13.1335L61.5149 12.6989C60.2024 12.4602 59.2251 12.0199 58.5831 11.3778C57.9411 10.7301 57.6229 9.90625 57.6286 8.90625C57.6229 8.03125 57.8558 7.28409 58.3274 6.66477C58.799 6.03977 59.4695 5.5625 60.3388 5.23295C61.2081 4.90341 62.2337 4.73864 63.4155 4.73864C65.1882 4.73864 66.5859 5.1108 67.6087 5.85511C68.6314 6.59375 69.1967 7.6108 69.3047 8.90625Z"
        fill="#ff6900" />
    <path
        d="M75.456 18H70.9219L76.8111 0.545454H82.4276L88.3168 18H83.7827L79.6832 4.94318H79.5469L75.456 18ZM74.8509 11.1307H84.3281V14.3352H74.8509V11.1307ZM95.4865 18.2472C94.1058 18.2472 92.9212 17.9631 91.9325 17.3949C90.9496 16.8267 90.1939 16.0369 89.6655 15.0256C89.1371 14.0085 88.8729 12.8324 88.8729 11.4972C88.8729 10.1562 89.1371 8.98011 89.6655 7.96875C90.1996 6.9517 90.9581 6.15909 91.9411 5.59091C92.9297 5.02273 94.1087 4.73864 95.478 4.73864C96.6882 4.73864 97.7422 4.95739 98.6399 5.39489C99.5433 5.83239 100.248 6.4517 100.754 7.25284C101.265 8.0483 101.535 8.98295 101.563 10.0568H97.6683C97.5888 9.38636 97.3615 8.8608 96.9865 8.48011C96.6172 8.09943 96.1342 7.90909 95.5376 7.90909C95.0547 7.90909 94.6314 8.04545 94.2678 8.31818C93.9041 8.58523 93.62 8.98295 93.4155 9.51136C93.2166 10.0341 93.1172 10.6818 93.1172 11.4545C93.1172 12.2273 93.2166 12.8807 93.4155 13.4148C93.62 13.9432 93.9041 14.3437 94.2678 14.6165C94.6314 14.8835 95.0547 15.017 95.5376 15.017C95.924 15.017 96.2649 14.9347 96.5604 14.7699C96.8615 14.6051 97.1087 14.3636 97.3018 14.0455C97.495 13.7216 97.6172 13.3295 97.6683 12.8693H101.563C101.523 13.9489 101.254 14.892 100.754 15.6989C100.259 16.5057 99.5632 17.1335 98.6655 17.5824C97.7734 18.0256 96.7138 18.2472 95.4865 18.2472ZM109.807 18.2472C108.426 18.2472 107.241 17.9631 106.253 17.3949C105.27 16.8267 104.514 16.0369 103.986 15.0256C103.457 14.0085 103.193 12.8324 103.193 11.4972C103.193 10.1562 103.457 8.98011 103.986 7.96875C104.52 6.9517 105.278 6.15909 106.261 5.59091C107.25 5.02273 108.429 4.73864 109.798 4.73864C111.009 4.73864 112.063 4.95739 112.96 5.39489C113.864 5.83239 114.568 6.4517 115.074 7.25284C115.585 8.0483 115.855 8.98295 115.884 10.0568H111.989C111.909 9.38636 111.682 8.8608 111.307 8.48011C110.938 8.09943 110.455 7.90909 109.858 7.90909C109.375 7.90909 108.952 8.04545 108.588 8.31818C108.224 8.58523 107.94 8.98295 107.736 9.51136C107.537 10.0341 107.438 10.6818 107.438 11.4545C107.438 12.2273 107.537 12.8807 107.736 13.4148C107.94 13.9432 108.224 14.3437 108.588 14.6165C108.952 14.8835 109.375 15.017 109.858 15.017C110.244 15.017 110.585 14.9347 110.881 14.7699C111.182 14.6051 111.429 14.3636 111.622 14.0455C111.815 13.7216 111.938 13.3295 111.989 12.8693H115.884C115.844 13.9489 115.574 14.892 115.074 15.6989C114.58 16.5057 113.884 17.1335 112.986 17.5824C112.094 18.0256 111.034 18.2472 109.807 18.2472ZM124.127 18.2472C122.752 18.2472 121.57 17.9659 120.582 17.4034C119.599 16.8352 118.84 16.0455 118.306 15.0341C117.778 14.017 117.513 12.8381 117.513 11.4972C117.513 10.1506 117.778 8.97159 118.306 7.96023C118.84 6.94318 119.599 6.15341 120.582 5.59091C121.57 5.02273 122.752 4.73864 124.127 4.73864C125.502 4.73864 126.681 5.02273 127.664 5.59091C128.653 6.15341 129.411 6.94318 129.94 7.96023C130.474 8.97159 130.741 10.1506 130.741 11.4972C130.741 12.8381 130.474 14.017 129.94 15.0341C129.411 16.0455 128.653 16.8352 127.664 17.4034C126.681 17.9659 125.502 18.2472 124.127 18.2472ZM124.153 15.1023C124.653 15.1023 125.076 14.9489 125.423 14.642C125.769 14.3352 126.033 13.9091 126.215 13.3636C126.403 12.8182 126.496 12.1875 126.496 11.4716C126.496 10.7443 126.403 10.108 126.215 9.5625C126.033 9.01705 125.769 8.59091 125.423 8.28409C125.076 7.97727 124.653 7.82386 124.153 7.82386C123.636 7.82386 123.198 7.97727 122.84 8.28409C122.488 8.59091 122.218 9.01705 122.031 9.5625C121.849 10.108 121.758 10.7443 121.758 11.4716C121.758 12.1875 121.849 12.8182 122.031 13.3636C122.218 13.9091 122.488 14.3352 122.84 14.642C123.198 14.9489 123.636 15.1023 124.153 15.1023ZM141.322 12.3494V4.90909H145.481V18H141.509V15.5625H141.373C141.083 16.3636 140.589 17 139.89 17.4716C139.197 17.9375 138.359 18.1705 137.376 18.1705C136.484 18.1705 135.7 17.9659 135.023 17.5568C134.347 17.1477 133.822 16.5767 133.447 15.8438C133.072 15.1051 132.881 14.2415 132.876 13.2528V4.90909H137.043V12.4347C137.049 13.1449 137.237 13.7045 137.606 14.1136C137.975 14.5227 138.478 14.7273 139.114 14.7273C139.529 14.7273 139.901 14.6364 140.231 14.4545C140.566 14.267 140.83 13.9972 141.023 13.6449C141.222 13.2869 141.322 12.8551 141.322 12.3494ZM152.301 10.5341V18H148.134V4.90909H152.097V7.3125H152.241C152.531 6.51136 153.026 5.88352 153.724 5.42898C154.423 4.96875 155.256 4.73864 156.222 4.73864C157.142 4.73864 157.94 4.94602 158.616 5.36079C159.298 5.76989 159.827 6.34375 160.202 7.08239C160.582 7.81534 160.77 8.6733 160.764 9.65625V18H156.597V10.4744C156.602 9.74716 156.418 9.17898 156.043 8.76989C155.673 8.3608 155.159 8.15625 154.5 8.15625C154.062 8.15625 153.676 8.25284 153.341 8.44602C153.011 8.63352 152.756 8.90341 152.574 9.25568C152.398 9.60795 152.307 10.0341 152.301 10.5341ZM170.734 4.90909V7.97727H162.475V4.90909H170.734ZM164.205 1.77273H168.373V13.8835C168.373 14.1392 168.413 14.3466 168.492 14.5057C168.577 14.6591 168.7 14.7699 168.859 14.8381C169.018 14.9006 169.208 14.9318 169.43 14.9318C169.589 14.9318 169.756 14.9176 169.933 14.8892C170.114 14.8551 170.251 14.8267 170.342 14.804L170.972 17.8125C170.773 17.8693 170.492 17.9403 170.129 18.0256C169.771 18.1108 169.342 18.1648 168.842 18.1875C167.864 18.233 167.026 18.1193 166.327 17.8466C165.634 17.5682 165.103 17.1364 164.734 16.5511C164.37 15.9659 164.194 15.2301 164.205 14.3438V1.77273ZM176.55 18.2216C175.715 18.2216 174.974 18.0824 174.326 17.804C173.684 17.5199 173.175 17.0937 172.8 16.5256C172.431 15.9517 172.246 15.233 172.246 14.3693C172.246 13.642 172.374 13.0284 172.63 12.5284C172.886 12.0284 173.238 11.6222 173.687 11.3097C174.136 10.9972 174.653 10.7614 175.238 10.6023C175.823 10.4375 176.448 10.3267 177.113 10.2699C177.857 10.2017 178.457 10.1307 178.911 10.0568C179.366 9.97727 179.695 9.86648 179.9 9.72443C180.11 9.5767 180.215 9.36932 180.215 9.10227V9.05966C180.215 8.62216 180.065 8.28409 179.763 8.04545C179.462 7.80682 179.056 7.6875 178.545 7.6875C177.994 7.6875 177.55 7.80682 177.215 8.04545C176.88 8.28409 176.667 8.61364 176.576 9.03409L172.732 8.89773C172.846 8.10227 173.138 7.39205 173.61 6.76705C174.087 6.13636 174.741 5.64205 175.57 5.28409C176.406 4.92045 177.408 4.73864 178.579 4.73864C179.414 4.73864 180.184 4.83807 180.888 5.03693C181.593 5.23011 182.207 5.5142 182.729 5.8892C183.252 6.25852 183.656 6.71307 183.94 7.25284C184.229 7.79261 184.374 8.40909 184.374 9.10227V18H180.454V16.1761H180.352C180.119 16.6193 179.82 16.9943 179.457 17.3011C179.099 17.608 178.675 17.8381 178.187 17.9915C177.704 18.1449 177.158 18.2216 176.55 18.2216ZM177.837 15.4943C178.286 15.4943 178.69 15.4034 179.048 15.2216C179.411 15.0398 179.701 14.7898 179.917 14.4716C180.133 14.1477 180.241 13.7727 180.241 13.3466V12.1023C180.121 12.1648 179.977 12.2216 179.806 12.2727C179.641 12.3239 179.46 12.3722 179.261 12.4176C179.062 12.4631 178.857 12.5028 178.647 12.5369C178.437 12.571 178.235 12.6023 178.042 12.6307C177.65 12.6932 177.315 12.7898 177.036 12.9205C176.763 13.0511 176.553 13.2216 176.406 13.4318C176.263 13.6364 176.192 13.8807 176.192 14.1648C176.192 14.5966 176.346 14.9261 176.653 15.1534C176.965 15.3807 177.36 15.4943 177.837 15.4943ZM191.09 10.5341V18H186.923V4.90909H190.886V7.3125H191.031C191.32 6.51136 191.815 5.88352 192.513 5.42898C193.212 4.96875 194.045 4.73864 195.011 4.73864C195.931 4.73864 196.729 4.94602 197.406 5.36079C198.087 5.76989 198.616 6.34375 198.991 7.08239C199.371 7.81534 199.559 8.6733 199.553 9.65625V18H195.386V10.4744C195.391 9.74716 195.207 9.17898 194.832 8.76989C194.462 8.3608 193.948 8.15625 193.289 8.15625C192.852 8.15625 192.465 8.25284 192.13 8.44602C191.8 8.63352 191.545 8.90341 191.363 9.25568C191.187 9.60795 191.096 10.0341 191.09 10.5341ZM209.523 4.90909V7.97727H201.264V4.90909H209.523ZM202.994 1.77273H207.162V13.8835C207.162 14.1392 207.202 14.3466 207.281 14.5057C207.366 14.6591 207.489 14.7699 207.648 14.8381C207.807 14.9006 207.997 14.9318 208.219 14.9318C208.378 14.9318 208.545 14.9176 208.722 14.8892C208.903 14.8551 209.04 14.8267 209.131 14.804L209.761 17.8125C209.563 17.8693 209.281 17.9403 208.918 18.0256C208.56 18.1108 208.131 18.1648 207.631 18.1875C206.653 18.233 205.815 18.1193 205.116 17.8466C204.423 17.5682 203.892 17.1364 203.523 16.5511C203.159 15.9659 202.983 15.2301 202.994 14.3438V1.77273Z"
        fill="#999" />
</svg>