<svg width="146" height="77" viewBox="0 0 146 77" fill="none" xmlns="http://www.w3.org/2000/svg">
<path d="M54.5845 48V19.5322H50.4004V12.7656H65.8154V19.5322H61.6313V48H54.5845ZM72.3618 48.3203C70.6935 48.3203 69.4189 47.9333 68.5381 47.1592C67.6706 46.3851 67.0767 45.3241 66.7563 43.9761C66.436 42.6281 66.2759 41.0999 66.2759 39.3916C66.2759 37.5632 66.4561 36.0684 66.8164 34.9072C67.1768 33.7327 67.7907 32.7718 68.6582 32.0244C69.5391 31.277 70.7469 30.6431 72.2817 30.1226L76.7261 28.6011V25.5181C76.7261 23.9032 76.1989 23.0957 75.1445 23.0957C74.1836 23.0957 73.7031 23.7497 73.7031 25.0576V26.8594H66.7363C66.723 26.7526 66.7163 26.6191 66.7163 26.459C66.7163 26.2855 66.7163 26.092 66.7163 25.8784C66.7163 22.8888 67.417 20.7734 68.8184 19.5322C70.2331 18.2777 72.4686 17.6504 75.5249 17.6504C77.1265 17.6504 78.5612 17.9373 79.8291 18.5112C81.097 19.0718 82.098 19.9059 82.832 21.0137C83.5794 22.1214 83.9531 23.4894 83.9531 25.1177V48H76.8262V44.4365C76.4792 45.6911 75.9053 46.652 75.1045 47.3193C74.3037 47.9867 73.3895 48.3203 72.3618 48.3203ZM75.1846 42.7549C75.7718 42.7549 76.1722 42.508 76.3857 42.0142C76.5993 41.5203 76.7061 40.9865 76.7061 40.4126V32.0444C75.7184 32.4448 74.951 32.952 74.4038 33.5659C73.8566 34.1665 73.583 35.054 73.583 36.2285V40.0923C73.583 41.8674 74.1169 42.7549 75.1846 42.7549ZM85.4346 48L90.9399 31.8643L85.9351 17.9507H93.2422L95.8247 25.2378L98.3672 17.9507H103.692L98.5273 32.8052L103.933 48H96.7456L93.7026 39.5518L90.8599 48H85.4346ZM113.182 48.3203C111.046 48.3203 109.345 47.9199 108.077 47.1191C106.809 46.3184 105.901 45.1639 105.354 43.6558C104.807 42.1476 104.533 40.3325 104.533 38.2104V26.1387C104.533 23.3493 105.334 21.2406 106.936 19.8125C108.537 18.3711 110.739 17.6504 113.542 17.6504C119.308 17.6504 122.19 20.4798 122.19 26.1387V28.3208C122.19 30.9634 122.164 32.7384 122.11 33.646H111.7V39.4517C111.7 39.9855 111.734 40.5127 111.8 41.0332C111.867 41.5404 112.014 41.9608 112.241 42.2944C112.481 42.6281 112.861 42.7949 113.382 42.7949C114.129 42.7949 114.596 42.4746 114.783 41.834C114.97 41.18 115.063 40.3325 115.063 39.2915V36.4087H122.19V38.1104C122.19 40.3525 121.91 42.2344 121.35 43.7559C120.802 45.264 119.868 46.4051 118.547 47.1792C117.239 47.9399 115.451 48.3203 113.182 48.3203ZM111.66 30.0825H115.063V26.0386C115.063 24.9575 114.93 24.1834 114.663 23.7163C114.396 23.2358 113.996 22.9956 113.462 22.9956C112.888 22.9956 112.441 23.2225 112.121 23.6763C111.814 24.13 111.66 24.9175 111.66 26.0386V30.0825ZM133.021 48.3203C127.095 48.3203 124.132 45.3174 124.132 39.3115V36.9292H131.339V40.4526C131.339 41.1333 131.473 41.6672 131.74 42.0542C132.007 42.4412 132.434 42.6348 133.021 42.6348C134.062 42.6348 134.583 41.854 134.583 40.2925C134.583 38.9845 134.309 38.0103 133.762 37.3696C133.215 36.7157 132.547 36.0884 131.76 35.4878L127.936 32.5449C126.735 31.6107 125.821 30.623 125.193 29.582C124.566 28.541 124.252 27.0929 124.252 25.2378C124.252 23.5161 124.66 22.0947 125.474 20.9736C126.301 19.8525 127.389 19.0184 128.737 18.4712C130.098 17.924 131.566 17.6504 133.141 17.6504C138.96 17.6504 141.87 20.5532 141.87 26.3589V26.9194H134.462V25.7783C134.462 25.1777 134.356 24.5972 134.142 24.0366C133.942 23.4761 133.542 23.1958 132.941 23.1958C131.927 23.1958 131.419 23.7297 131.419 24.7974C131.419 25.8784 131.847 26.7259 132.701 27.3398L137.145 30.583C138.533 31.584 139.694 32.7718 140.628 34.1465C141.576 35.5212 142.05 37.3496 142.05 39.6318C142.05 42.4613 141.242 44.6167 139.627 46.0981C138.026 47.5796 135.824 48.3203 133.021 48.3203Z" fill="#EED8BF"/>
<path d="M55.2783 73L56.8555 56.6719H62.394L63.9434 73H60.854L60.6221 70.3652H58.6553L58.4512 73H55.2783ZM58.8872 67.7583H60.3716L59.6572 59.4551H59.5088L58.8872 67.7583ZM69.0737 73.1484C67.5151 73.1484 66.408 72.7495 65.7524 71.9517C65.103 71.1538 64.7783 69.9818 64.7783 68.4355V64.1494C64.7783 62.9867 64.902 62.0187 65.1494 61.2456C65.3968 60.4725 65.8298 59.8942 66.4482 59.5107C67.0667 59.1273 67.9264 58.9355 69.0273 58.9355C69.7943 58.9355 70.4808 59.0716 71.0869 59.3438C71.6992 59.6159 72.1816 60.0148 72.5342 60.5405C72.8867 61.0662 73.063 61.7095 73.063 62.4702V64.5947H69.6768V62.6465C69.6768 62.3249 69.6304 62.0558 69.5376 61.8394C69.4448 61.6167 69.2438 61.5054 68.9346 61.5054C68.3903 61.5054 68.1182 61.8919 68.1182 62.665V69.4097C68.1182 69.6942 68.18 69.957 68.3037 70.1982C68.4274 70.4333 68.6315 70.5508 68.916 70.5508C69.2067 70.5508 69.4077 70.4364 69.519 70.2075C69.6366 69.9725 69.6953 69.7004 69.6953 69.3911V67.0532H73.063V69.4839C73.063 70.2508 72.8898 70.9095 72.5435 71.46C72.2033 72.0042 71.7332 72.4217 71.1333 72.7124C70.5334 73.0031 69.8468 73.1484 69.0737 73.1484ZM78.4067 73.1484C76.8481 73.1484 75.741 72.7495 75.0854 71.9517C74.436 71.1538 74.1113 69.9818 74.1113 68.4355V64.1494C74.1113 62.9867 74.235 62.0187 74.4824 61.2456C74.7298 60.4725 75.1628 59.8942 75.7812 59.5107C76.3997 59.1273 77.2594 58.9355 78.3604 58.9355C79.1273 58.9355 79.8138 59.0716 80.4199 59.3438C81.0322 59.6159 81.5146 60.0148 81.8672 60.5405C82.2197 61.0662 82.396 61.7095 82.396 62.4702V64.5947H79.0098V62.6465C79.0098 62.3249 78.9634 62.0558 78.8706 61.8394C78.7778 61.6167 78.5768 61.5054 78.2676 61.5054C77.7233 61.5054 77.4512 61.8919 77.4512 62.665V69.4097C77.4512 69.6942 77.513 69.957 77.6367 70.1982C77.7604 70.4333 77.9645 70.5508 78.249 70.5508C78.5397 70.5508 78.7407 70.4364 78.8521 70.2075C78.9696 69.9725 79.0283 69.7004 79.0283 69.3911V67.0532H82.396V69.4839C82.396 70.2508 82.2228 70.9095 81.8765 71.46C81.5363 72.0042 81.0662 72.4217 80.4663 72.7124C79.8664 73.0031 79.1799 73.1484 78.4067 73.1484ZM87.6006 73.1484C84.8298 73.1484 83.4443 71.7104 83.4443 68.8345V63.2495C83.4443 61.9383 83.8123 60.8931 84.5483 60.1138C85.2843 59.3283 86.3018 58.9355 87.6006 58.9355C88.9056 58.9355 89.9261 59.3283 90.6621 60.1138C91.3981 60.8931 91.7661 61.9383 91.7661 63.2495V68.8345C91.7661 71.7104 90.3776 73.1484 87.6006 73.1484ZM87.6006 70.5879C87.8789 70.5879 88.0768 70.4889 88.1943 70.291C88.318 70.0869 88.3799 69.8302 88.3799 69.521V62.7207C88.3799 61.9105 88.1201 61.5054 87.6006 61.5054C87.0811 61.5054 86.8213 61.9105 86.8213 62.7207V69.521C86.8213 69.8302 86.88 70.0869 86.9976 70.291C87.1213 70.4889 87.3223 70.5879 87.6006 70.5879ZM95.6812 73.1484C94.939 73.1484 94.37 72.9938 93.9741 72.6846C93.5845 72.3753 93.3185 71.9455 93.1763 71.395C93.034 70.8384 92.9629 70.189 92.9629 69.4468V59.084H96.3027V69.0571C96.3027 69.6138 96.346 70.0034 96.4326 70.2261C96.5192 70.4425 96.7233 70.5508 97.0449 70.5508C97.3913 70.5508 97.6077 70.3962 97.6943 70.0869C97.7871 69.7777 97.8335 69.3787 97.8335 68.8901V59.084H101.146V73H97.8242V71.5156C97.6139 72.0475 97.3604 72.4526 97.0635 72.731C96.7728 73.0093 96.312 73.1484 95.6812 73.1484ZM102.481 73V59.084H105.803V60.856C105.926 60.3241 106.155 59.8726 106.489 59.5015C106.829 59.1242 107.299 58.9355 107.899 58.9355C108.864 58.9355 109.563 59.2324 109.996 59.8262C110.435 60.4199 110.655 61.2332 110.655 62.2661V73H107.38V62.6094C107.38 62.3372 107.324 62.0868 107.213 61.8579C107.102 61.6229 106.91 61.5054 106.638 61.5054C106.384 61.5054 106.195 61.5951 106.072 61.7744C105.954 61.9476 105.88 62.1672 105.849 62.4331C105.818 62.6929 105.803 62.9526 105.803 63.2124V73H102.481ZM114.82 73.1484C113.924 73.1484 113.317 72.9598 113.002 72.5825C112.693 72.1991 112.538 71.6146 112.538 70.8291V62.1548H111.601V59.6221H112.538V56.6719H115.767V59.6221H116.704V62.1548H115.767V70.0498C115.767 70.2786 115.804 70.4395 115.878 70.5322C115.952 70.625 116.094 70.6714 116.305 70.6714C116.453 70.6714 116.586 70.659 116.704 70.6343V72.8979C116.629 72.9227 116.397 72.9691 116.008 73.0371C115.618 73.1113 115.222 73.1484 114.82 73.1484ZM120.303 73.1484C119.53 73.1484 118.939 72.9691 118.531 72.6104C118.129 72.2516 117.854 71.7599 117.706 71.1353C117.557 70.5106 117.483 69.8024 117.483 69.0107C117.483 68.1634 117.566 67.4707 117.733 66.9326C117.9 66.3883 118.185 65.943 118.587 65.5967C118.995 65.2503 119.555 64.9565 120.266 64.7153L122.326 64.0103V62.5815C122.326 61.8332 122.081 61.459 121.593 61.459C121.147 61.459 120.925 61.762 120.925 62.3682V63.2031H117.696C117.69 63.1536 117.687 63.0918 117.687 63.0176C117.687 62.9372 117.687 62.8475 117.687 62.7485C117.687 61.3631 118.012 60.3828 118.661 59.8076C119.317 59.2262 120.353 58.9355 121.769 58.9355C122.511 58.9355 123.176 59.0685 123.764 59.3345C124.351 59.5942 124.815 59.9808 125.155 60.4941C125.502 61.0075 125.675 61.6414 125.675 62.396V73H122.372V71.3486C122.211 71.93 121.945 72.3753 121.574 72.6846C121.203 72.9938 120.779 73.1484 120.303 73.1484ZM121.611 70.5693C121.883 70.5693 122.069 70.4549 122.168 70.2261C122.267 69.9972 122.316 69.7498 122.316 69.4839V65.606C121.859 65.7915 121.503 66.0265 121.25 66.311C120.996 66.5894 120.869 67.0007 120.869 67.5449V69.3354C120.869 70.158 121.117 70.5693 121.611 70.5693ZM126.955 73V59.084H130.276V60.856C130.4 60.3241 130.629 59.8726 130.963 59.5015C131.303 59.1242 131.773 58.9355 132.373 58.9355C133.338 58.9355 134.037 59.2324 134.47 59.8262C134.909 60.4199 135.128 61.2332 135.128 62.2661V73H131.854V62.6094C131.854 62.3372 131.798 62.0868 131.687 61.8579C131.575 61.6229 131.383 61.5054 131.111 61.5054C130.858 61.5054 130.669 61.5951 130.545 61.7744C130.428 61.9476 130.354 62.1672 130.323 62.4331C130.292 62.6929 130.276 62.9526 130.276 63.2124V73H126.955ZM139.294 73.1484C138.397 73.1484 137.791 72.9598 137.476 72.5825C137.166 72.1991 137.012 71.6146 137.012 70.8291V62.1548H136.075V59.6221H137.012V56.6719H140.24V59.6221H141.177V62.1548H140.24V70.0498C140.24 70.2786 140.277 70.4395 140.352 70.5322C140.426 70.625 140.568 70.6714 140.778 70.6714C140.927 70.6714 141.06 70.659 141.177 70.6343V72.8979C141.103 72.9227 140.871 72.9691 140.481 73.0371C140.092 73.1113 139.696 73.1484 139.294 73.1484Z" fill="#F54900"/>
<path fill-rule="evenodd" clip-rule="evenodd" d="M45 77L29.0933 70.2366L21.7741 41.5614L9.47993 61.9022L0 57.9246L25.8105 12L45 77Z" fill="#F38E64"/>
<path fill-rule="evenodd" clip-rule="evenodd" d="M45.1077 77L55 72.5709L36.6151 12.407L26 12L45.1077 77Z" fill="#F54900"/>
</svg>
